# xmcd
#
# Track frame offsets: 
#        150
#        18193
#        36542
#        54799
#        71689
#        87360
#        113508
#        142349
#        156749
#        176129
#        186050
#        211686
#        228687
#        250045
#        265400
#        289373
#        315472
#
# Disc length: 4776 seconds
#
# Revision: 1
# Processed by: cddbd v1.5.2PL0 Copyright (c) Steve Scherf et al.
# Submitted via: ExactAudioCopy v1.3
#
DISCID=fc12a611
DTITLE=Various Artist - Akella Presents - vol.63 - Blues-Rock  CD2
DYEAR=2016
DGENRE=Blues-Rock
TTITLE0=The Rex Carroll Band - Working Man's Blues
TTITLE1=Leslie West - Give Me One Reason
TTITLE2=Martin J. Andersen - Dirty Little Angel
TTITLE3=Bonafide - Rock'N'Roll Skal
TTITLE4=Gentlemen's Blues Club - You Must Survive
TTITLE5=Jay Jesse Johnson - Midnight Dream
TTITLE6=Robin Trower - Strange Love
TTITLE7=Rob Tognoni - The Blues Ain't Never Fun
TTITLE8=Reverend Black Network - Behind the Black Door
TTITLE9=Mark Cook - Bottom of the Sea
TTITLE10=David M'ore - Shame Shame Shame
TTITLE11=The Union - The Remedy
TTITLE12=Matt O'Ree - Marry You
TTITLE13=Anthony Gomes - Back Door Scratchin'
TTITLE14=Gugun Power Trio - Fire Under Water
TTITLE15=David Hidalgo-Mato Nanji-Luther Dickinson - Coming Home
TTITLE16=Dave Meniketti - Load Me A Dime
EXTD=
EXTT0=
EXTT1=
EXTT2=
EXTT3=
EXTT4=
EXTT5=
EXTT6=
EXTT7=
EXTT8=
EXTT9=
EXTT10=
EXTT11=
EXTT12=
EXTT13=
EXTT14=
EXTT15=
EXTT16=
PLAYORDER=
